HIERARCHY
ROOT Torso
{
	OFFSET 0.000000 0.000000 0.000000
	CHANNELS 6 Xposition Yposition Zposition Zrotation Yrotation Xrotation 
	JOINT LHip1
	{
		OFFSET 0.000000 -0.060000 0.010000
		CHANNELS 3 Zrotation Yrotation Xrotation
		JOINT LHip2
		{
			OFFSET -0.055000 -0.055000 0.000000
			CHANNELS 3 Zrotation Yrotation Xrotation
			JOINT LHip3
			{
				OFFSET 0.000000 0.000000 -0.010000
				CHANNELS 3 Zrotation Yrotation Xrotation
				JOINT LThigh
				{
					OFFSET 0.010000 0.000000 0.000000
					CHANNELS 3 Zrotation Yrotation Xrotation
					JOINT LLeg
					{
						OFFSET -0.010000 -0.120000 -0.014000
						CHANNELS 3 Zrotation Yrotation Xrotation
						JOINT LFoot
						{
							OFFSET 0.000000 -0.100000 0.010000
							CHANNELS 3 Zrotation Yrotation Xrotation
							End Site
							{
								OFFSET 0.000000 0.000000 0.000000
							}
						}
					}
				}
			}
		}
	}
	JOINT RHip1
	{
		OFFSET 0.000000 -0.060000 0.010000
		CHANNELS 3 Zrotation Yrotation Xrotation
		JOINT RHip2
		{
			OFFSET 0.055000 -0.055000 0.000000
			CHANNELS 3 Zrotation Yrotation Xrotation
			JOINT RHip3
			{
				OFFSET 0.000000 0.000000 -0.010000
				CHANNELS 3 Zrotation Yrotation Xrotation
				JOINT RThigh
				{
					OFFSET 0.010000 0.000000 0.000000
					CHANNELS 3 Zrotation Yrotation Xrotation
					JOINT RLeg
					{
						OFFSET -0.010000 -0.120000 -0.014000
						CHANNELS 3 Zrotation Yrotation Xrotation
						JOINT RFoot
						{
							OFFSET 0.000000 -0.100000 0.010000
							CHANNELS 3 Zrotation Yrotation Xrotation
							End Site
							{
								OFFSET 0.000000 0.000000 0.000000
							}
						}
					}
				}
			}
		}
	}
	JOINT Neck
	{
		OFFSET 0.000000 0.040000 0.000000
		CHANNELS 3 Zrotation Yrotation Xrotation
		JOINT Head
		{
			OFFSET 0.000000 0.100000 0.000000
			CHANNELS 3 Zrotation Yrotation Xrotation
			End Site
			{
				OFFSET 0.000000 0.000000 0.000000
			}
		}
	}
	JOINT LUpperarm
	{
		OFFSET -0.098000 0.075000 0.000000
		CHANNELS 3 Zrotation Yrotation Xrotation
		JOINT LLowerarm
		{
			OFFSET 0.000000 0.009000 -0.090000
			CHANNELS 3 Zrotation Yrotation Xrotation
			End Site
			{
				OFFSET 0.000000 0.000000 0.000000
			}
		}
	}
	JOINT RUpperarm
	{
		OFFSET 0.098000 0.075000 0.000000
		CHANNELS 3 Zrotation Yrotation Xrotation
		JOINT RLowerarm
		{
			OFFSET 0.000000 0.009000 -0.090000
			CHANNELS 3 Zrotation Yrotation Xrotation
			End Site
			{
				OFFSET 0.000000 0.000000 0.000000
			}
		}
	}
}
MOTION
Frames: 10
Frame Time: 0.041667
0.000000 0.000000 0.000000 0.000000 0.000000 0.000000 0.000000 0.000000 0.000000 0.000000 0.000000 0.000000 0.000000 0.000000 0.000000 0.000000 0.000000 0.000000 0.000000 0.000000 0.000000 0.000000 0.000000 0.000000 0.000000 0.000000 0.000000 0.000000 0.000000 0.000000 0.000000 0.000000 0.000000 0.000000 0.000000 0.000000 0.000000 0.000000 0.000000 0.000000 0.000000 0.000000 0.000000 0.000000 0.000000 0.000000 0.000000 0.000000 -0.370700 -20.663500 -39.541400 36.697200 -45.986700 -16.021900 77.089600 -3.090700 45.071900 -25.697800 36.908700 -8.705500 
0.000000 0.000000 0.000000 0.000000 0.000000 0.000000 0.000000 0.000000 0.000000 0.000000 0.000000 0.000000 0.000000 0.000000 0.000000 0.000000 0.000000 0.000000 0.000000 0.000000 0.000000 0.000000 0.000000 0.000000 0.000000 0.000000 0.000000 0.000000 0.000000 0.000000 0.000000 0.000000 0.000000 0.000000 0.000000 0.000000 0.000000 0.000000 0.000000 0.000000 0.000000 0.000000 0.000000 0.000000 0.000000 0.000000 0.000000 0.000000 0.758400 -22.552900 -43.993600 32.093500 -42.621600 -12.804100 76.989800 -3.068200 45.235900 -25.790300 37.000900 -8.761200 
0.000000 0.000000 0.000000 0.000000 0.000000 0.000000 0.000000 0.000000 0.000000 0.000000 0.000000 0.000000 0.000000 0.000000 0.000000 0.000000 0.000000 0.000000 0.000000 0.000000 0.000000 0.000000 0.000000 0.000000 0.000000 0.000000 0.000000 0.000000 0.000000 0.000000 0.000000 0.000000 0.000000 0.000000 0.000000 0.000000 0.000000 0.000000 0.000000 0.000000 0.000000 0.000000 0.000000 0.000000 0.000000 0.000000 0.000000 0.000000 1.843000 -24.250100 -48.175900 28.601900 -39.664500 -10.505700 76.907300 -3.069000 45.371100 -25.830900 37.041300 -8.785600 
0.000000 0.000000 0.000000 0.000000 0.000000 0.000000 0.000000 0.000000 0.000000 0.000000 0.000000 0.000000 0.000000 0.000000 0.000000 0.000000 0.000000 0.000000 0.000000 0.000000 0.000000 0.000000 0.000000 0.000000 0.000000 0.000000 0.000000 0.000000 0.000000 0.000000 0.000000 0.000000 0.000000 0.000000 0.000000 0.000000 0.000000 0.000000 0.000000 0.000000 0.000000 0.000000 0.000000 0.000000 0.000000 0.000000 0.000000 0.000000 2.669600 -25.588500 -51.325600 26.222900 -37.428000 -9.022800 76.845000 -3.076800 45.481600 -25.829800 37.040100 -8.784900 
0.000000 0.000000 0.000000 0.000000 0.000000 0.000000 0.000000 0.000000 0.000000 0.000000 0.000000 0.000000 0.000000 0.000000 0.000000 0.000000 0.000000 0.000000 0.000000 0.000000 0.000000 0.000000 0.000000 0.000000 0.000000 0.000000 0.000000 0.000000 0.000000 0.000000 0.000000 0.000000 0.000000 0.000000 0.000000 0.000000 0.000000 0.000000 0.000000 0.000000 0.000000 0.000000 0.000000 0.000000 0.000000 0.000000 0.000000 0.000000 3.075200 -26.475400 -52.675200 24.947100 -36.149800 -8.258700 76.823400 -3.092200 45.558800 -25.800600 37.011100 -8.767300 
0.000000 0.000000 0.000000 0.000000 0.000000 0.000000 0.000000 0.000000 0.000000 0.000000 0.000000 0.000000 0.000000 0.000000 0.000000 0.000000 0.000000 0.000000 0.000000 0.000000 0.000000 0.000000 0.000000 0.000000 0.000000 0.000000 0.000000 0.000000 0.000000 0.000000 0.000000 0.000000 0.000000 0.000000 0.000000 0.000000 0.000000 0.000000 0.000000 0.000000 0.000000 0.000000 0.000000 0.000000 0.000000 0.000000 0.000000 0.000000 3.007000 -26.897200 -51.804000 24.743600 -35.940700 -8.138900 76.864200 -3.136400 45.582600 -25.762300 36.973000 -8.744300 
0.000000 0.000000 0.000000 0.000000 0.000000 0.000000 0.000000 0.000000 0.000000 0.000000 0.000000 0.000000 0.000000 0.000000 0.000000 0.000000 0.000000 0.000000 0.000000 0.000000 0.000000 0.000000 0.000000 0.000000 0.000000 0.000000 0.000000 0.000000 0.000000 0.000000 0.000000 0.000000 0.000000 0.000000 0.000000 0.000000 0.000000 0.000000 0.000000 0.000000 0.000000 0.000000 0.000000 0.000000 0.000000 0.000000 0.000000 0.000000 2.543100 -26.897200 -48.885300 25.575800 -36.786700 -8.632400 76.963500 -3.232800 45.543900 -25.731100 36.941900 -8.725500 
0.000000 0.000000 0.000000 0.000000 0.000000 0.000000 0.000000 0.000000 0.000000 0.000000 0.000000 0.000000 0.000000 0.000000 0.000000 0.000000 0.000000 0.000000 0.000000 0.000000 0.000000 0.000000 0.000000 0.000000 0.000000 0.000000 0.000000 0.000000 0.000000 0.000000 0.000000 0.000000 0.000000 0.000000 0.000000 0.000000 0.000000 0.000000 0.000000 0.000000 0.000000 0.000000 0.000000 0.000000 0.000000 0.000000 0.000000 0.000000 1.860300 -26.557700 -44.515600 27.408200 -38.565700 -9.752500 77.109700 -3.400700 45.440800 -25.712900 36.923800 -8.714600 
0.000000 0.000000 0.000000 0.000000 0.000000 0.000000 0.000000 0.000000 0.000000 0.000000 0.000000 0.000000 0.000000 0.000000 0.000000 0.000000 0.000000 0.000000 0.000000 0.000000 0.000000 0.000000 0.000000 0.000000 0.000000 0.000000 0.000000 0.000000 0.000000 0.000000 0.000000 0.000000 0.000000 0.000000 0.000000 0.000000 0.000000 0.000000 0.000000 0.000000 0.000000 0.000000 0.000000 0.000000 0.000000 0.000000 0.000000 0.000000 1.142700 -25.961800 -39.374300 30.197500 -41.062000 -11.539100 77.280400 -3.628400 45.293200 -25.700500 36.911400 -8.707200 
0.000000 0.000000 0.000000 0.000000 0.000000 0.000000 0.000000 0.000000 0.000000 0.000000 0.000000 0.000000 0.000000 0.000000 0.000000 0.000000 0.000000 0.000000 0.000000 0.000000 0.000000 0.000000 0.000000 0.000000 0.000000 0.000000 0.000000 0.000000 0.000000 0.000000 0.000000 0.000000 0.000000 0.000000 0.000000 0.000000 0.000000 0.000000 0.000000 0.000000 0.000000 0.000000 0.000000 0.000000 0.000000 0.000000 0.000000 0.000000 0.530400 -25.179500 -34.033200 33.889400 -44.002600 -14.036200 77.441700 -3.890800 45.131500 -25.685400 36.896400 -8.698100 
